<?xml version="1.0" standalone="yes"?>
<svg xmlns="http://www.w3.org/2000/svg" width="283" height="73">
<path style="fill:#fefefe; stroke:none;" d="M0 0L0 73L283 73L283 0L197 0L197 41L211 29.0278L229 28L210 47L210 48L231 69L213 67.9722L197 54L197 69L182 69L182 0L0 0z"/>
<path style="fill:#a2a6b6; stroke:none;" d="M182 0L182 69L183 69L183 22L182 0z"/>
<path style="fill:#727272; stroke:none;" d="M183 0L183 1L196 1L196 42L197 11L195.397 1.02778L183 0z"/>
<path style="fill:#a2a6b6; stroke:none;" d="M196 0L197 1L196 0z"/>
<path style="fill:#242424; stroke:none;" d="M183 1L183 69L196 69L196 53L213 67.9722L230 69L212.056 48L228 28L211 29.0278L196 42L196 1L183 1z"/>
<path style="fill:#5371ff; stroke:none;" d="M225 1L225 21L280 21C277.66 -5.62853 243.761 1 225 1z"/>
<path style="fill:#a2a6b6; stroke:none;" d="M263.667 1.33334L264.333 1.66666L263.667 1.33334M22.6667 2.33334L23.3333 2.66666L22.6667 2.33334z"/>
<path style="fill:#727272; stroke:none;" d="M24.6667 2.33334L25.3333 2.66666L24.6667 2.33334z"/>
<path style="fill:#242424; stroke:none;" d="M8 50L1 62C15.9016 70.6975 56.4263 75.8968 49.6057 46C46.5083 32.423 31.0398 33.3089 23.4529 24.6096C17.4692 17.7484 29.2726 15.1166 34 16.4429C37.0504 17.2987 39.8691 18.4613 43 19L48 8C33.109 -0.466187 -0.107008 1.76424 7.80401 27C11.6432 39.2469 26.1469 37.9176 32.3773 47.1852C38.326 56.0338 22.718 56.6809 18 54.662C14.5954 53.2052 11.4833 51.2676 8 50z"/>
<path style="fill:#727272; stroke:none;" d="M31.6667 2.33334L32.3333 2.66666L31.6667 2.33334z"/>
<path style="fill:#a2a6b6; stroke:none;" d="M33.6667 2.33334L34.3333 2.66666L33.6667 2.33334M267 2L268 3L267 2M19 3L20 4L19 3z"/>
<path style="fill:#727272; stroke:none;" d="M20 3L21 4L20 3M37 3L38 4L37 3z"/>
<path style="fill:#a2a6b6; stroke:none;" d="M38 3L39 4L38 3z"/>
<path style="fill:#727272; stroke:none;" d="M61 3L62 4L61 3z"/>
<path style="fill:#242424; stroke:none;" d="M62.0193 3.75772C52.4799 7.25406 58.0638 22.3901 67.892 18.2569C76.6324 14.5813 70.8763 0.511482 62.0193 3.75772z"/>
<path style="fill:#727272; stroke:none;" d="M67 3L68 4L67 3M81 3L81 69L82 69L82 4L109 4L81 3z"/>
<path style="fill:#a2a6b6; stroke:none;" d="M109.667 3.33334L110.333 3.66666L109.667 3.33334M269 3L270 4L269 3M17 4L18 5L17 4z"/>
<path style="fill:#727272; stroke:none;" d="M40 4L41 5L40 4z"/>
<path style="fill:#a2a6b6; stroke:none;" d="M41 4L42 5L41 4M59 4L60 5L59 4M69 4L70 5L69 4z"/>
<path style="fill:#242424; stroke:none;" d="M82 4L82 69L96 69L96 44C104.251 44 112.805 44.9771 119.907 39.892C129.763 32.8338 129.766 14.6984 119.985 7.64892C110.393 0.736237 93.2284 4 82 4z"/>
<path style="fill:#727272; stroke:none;" d="M113 4L114 5L113 4z"/>
<path style="fill:#a2a6b6; stroke:none;" d="M114 4L115 5L114 4M271 4L272 5L271 4z"/>
<path style="fill:#727272; stroke:none;" d="M16 5L17 6L16 5M43 5L44 6L43 5z"/>
<path style="fill:#a2a6b6; stroke:none;" d="M58 5L59 6L58 5z"/>
<path style="fill:#727272; stroke:none;" d="M70 5L71 6L70 5M116 5L117 6L116 5z"/>
<path style="fill:#a2a6b6; stroke:none;" d="M272 5L273 6L272 5M14 6L15 7L14 6z"/>
<path style="fill:#727272; stroke:none;" d="M45 6L46 7L45 6z"/>
<path style="fill:#a2a6b6; stroke:none;" d="M57 6L58 7L57 6M71 6L72 7L71 6z"/>
<path style="fill:#727272; stroke:none;" d="M118 6L119 7L118 6M13 7L14 8L13 7z"/>
<path style="fill:#a2a6b6; stroke:none;" d="M47 7L48 8L47 7M120 7L121 8L120 7z"/>
<path style="fill:#727272; stroke:none;" d="M12 8L13 9L12 8z"/>
<path style="fill:#a2a6b6; stroke:none;" d="M48 8L49 9L48 8M56 8L57 9L56 8M72 8L73 9L72 8z"/>
<path style="fill:#727272; stroke:none;" d="M121 8L122 9L121 8z"/>
<path style="fill:#a2a6b6; stroke:none;" d="M275 8L276 9L275 8z"/>
<path style="fill:#727272; stroke:none;" d="M11 9L12 10L11 9M47 9L48 10L47 9M56 9L56 13L57 13L56 9M72 9L73 10L72 9M122 9L123 10L122 9z"/>
<path style="fill:#a2a6b6; stroke:none;" d="M276 9L277 10L276 9z"/>
<path style="fill:#727272; stroke:none;" d="M10 10L11 11L10 10z"/>
<path style="fill:#a2a6b6; stroke:none;" d="M47 10L48 11L47 10z"/>
<path style="fill:#727272; stroke:none;" d="M123 10L124 11L123 10z"/>
<path style="fill:#a2a6b6; stroke:none;" d="M9 11L10 12L9 11z"/>
<path style="fill:#727272; stroke:none;" d="M46 11L47 12L46 11z"/>
<path style="fill:#a2a6b6; stroke:none;" d="M124 11L125 12L124 11M277 11L278 12L277 11M46 12L47 13L46 12z"/>
<path style="fill:#727272; stroke:none;" d="M72.3333 12.6667L72.6667 13.3333L72.3333 12.6667z"/>
<path style="fill:#a2a6b6; stroke:none;" d="M8 13L9 14L8 13z"/>
<path style="fill:#727272; stroke:none;" d="M45 13L46 14L45 13z"/>
<path style="fill:#a2a6b6; stroke:none;" d="M56 13L57 14L56 13z"/>
<path style="fill:#727272; stroke:none;" d="M125 13L126 14L125 13z"/>
<path style="fill:#a2a6b6; stroke:none;" d="M278 13L279 14L278 13M45 14L46 15L45 14M72 14L73 15L72 14M7 15L8 16L7 15z"/>
<path style="fill:#727272; stroke:none;" d="M27 15L27 16L31 16L27 15M44 15L45 16L44 15M57 15L58 16L57 15M71 15L72 16L71 15z"/>
<path style="fill:#a2a6b6; stroke:none;" d="M96 15L96 33L103 33L103 32L97 32L97 16L104 16L96 15z"/>
<path style="fill:#727272; stroke:none;" d="M104 15L105 16L104 15z"/>
<path style="fill:#a2a6b6; stroke:none;" d="M126 15L127 16L126 15M279.333 15.6667L279.667 16.3333L279.333 15.6667z"/>
<path style="fill:#727272; stroke:none;" d="M7 16L8 17L7 16M24 16L25 17L24 16z"/>
<path style="fill:#a2a6b6; stroke:none;" d="M33 16L34 17L33 16z"/>
<path style="fill:#727272; stroke:none;" d="M34 16L35 17L34 16z"/>
<path style="fill:#a2a6b6; stroke:none;" d="M44 16L45 17L44 16z"/>
<path style="fill:#fefefe; stroke:none;" d="M97 16L97 32C103.927 31.9954 120.589 24.5003 107.867 17.179C104.763 15.3929 100.44 16.0004 97 16z"/>
<path style="fill:#727272; stroke:none;" d="M107 16L108 17L107 16M126 16L127 17L126 16z"/>
<path style="fill:#a2a6b6; stroke:none;" d="M36 17L37 18L36 17z"/>
<path style="fill:#727272; stroke:none;" d="M37 17L38 18L37 17M43 17L44 18L43 17M59 17L60 18L59 17M39 18L40 19L39 18z"/>
<path style="fill:#a2a6b6; stroke:none;" d="M43 18L44 19L43 18M60 18L61 19L60 18z"/>
<path style="fill:#727272; stroke:none;" d="M68 18L69 19L68 18M110 18L111 19L110 18z"/>
<path style="fill:#a2a6b6; stroke:none;" d="M127.333 18.6667L127.667 19.3333L127.333 18.6667M6 19L6 25L7 25L6 19z"/>
<path style="fill:#727272; stroke:none;" d="M21 19L22 20L21 19M41.6667 19.3333L42.3333 19.6667L41.6667 19.3333z"/>
<path style="fill:#a2a6b6; stroke:none;" d="M62.6667 19.3333L63.3333 19.6667L62.6667 19.3333z"/>
<path style="fill:#727272; stroke:none;" d="M64 19L65 20L64 19z"/>
<path style="fill:#a2a6b6; stroke:none;" d="M65.6667 19.3333L66.3333 19.6667L65.6667 19.3333M21 20L21 23L22 23L21 20z"/>
<path style="fill:#727272; stroke:none;" d="M111 20L112 21L111 20M127 20L127 27L128 27L127 20z"/>
<path style="fill:#a2a6b6; stroke:none;" d="M111 21L112 22L111 21M225 21L225 22L280 22L262 21L225 21z"/>
<path style="fill:#727272; stroke:none;" d="M22 24L23 25L22 24M23 25L24 26L23 25M7 26L8 27L7 26z"/>
<path style="fill:#a2a6b6; stroke:none;" d="M25 26L26 27L25 26M111 26L112 27L111 26M7 27L8 28L7 27M27 27L28 28L27 27z"/>
<path style="fill:#727272; stroke:none;" d="M111 27L112 28L111 27z"/>
<path style="fill:#a2a6b6; stroke:none;" d="M127.333 27.6667L127.667 28.3333L127.333 27.6667M148 27L149 28L148 27z"/>
<path style="fill:#727272; stroke:none;" d="M149.667 27.3333L150.333 27.6667L149.667 27.3333z"/>
<path style="fill:#242424; stroke:none;" d="M175 59C172.247 57.8557 169.052 55.6823 166 55.6929C157.743 55.7216 148.749 63.584 146 50L176 50C175.401 42.4759 173.649 35.1782 166.996 30.7029C154.309 22.1679 134.603 29.5446 132.301 45C128.751 68.8389 163.899 79.9425 175 59z"/>
<path style="fill:#727272; stroke:none;" d="M158.667 27.3333L159.333 27.6667L158.667 27.3333z"/>
<path style="fill:#a2a6b6; stroke:none;" d="M160 27L161 28L160 27M245.667 27.3333L246.333 27.6667L245.667 27.3333z"/>
<path style="fill:#727272; stroke:none;" d="M247 27L248 28L247 27z"/>
<path style="fill:#242424; stroke:none;" d="M265 64L265 69L279 69L279 40L277.397 29.0278L265 28L265 32C261.546 29.7507 258.155 27.8741 254 27.3048C223.227 23.0881 225.485 76.7088 256 69.3156C259.688 68.422 262.22 66.4721 265 64z"/>
<path style="fill:#727272; stroke:none;" d="M255 27L256 28L255 27z"/>
<path style="fill:#a2a6b6; stroke:none;" d="M256.667 27.3333L257.333 27.6667L256.667 27.3333M29 28L30 29L29 28z"/>
<path style="fill:#727272; stroke:none;" d="M57 28L57 69L58 69C58 57.3043 61.5108 38.7499 57 28z"/>
<path style="fill:#242424; stroke:none;" d="M58 28L58 69L71 69L71 28L58 28z"/>
<path style="fill:#a2a6b6; stroke:none;" d="M71 28L71 69L72 69C72 57.3043 75.5108 38.7499 71 28M110 28L111 29L110 28M145 28L146 29L145 28z"/>
<path style="fill:#727272; stroke:none;" d="M162 28L163 29L162 28z"/>
<path style="fill:#a2a6b6; stroke:none;" d="M163 28L164 29L163 28M210 28L211 29L210 28z"/>
<path style="fill:#727272; stroke:none;" d="M228 28L229 29L228 28M243 28L244 29L243 28z"/>
<path style="fill:#a2a6b6; stroke:none;" d="M259 28L260 29L259 28z"/>
<path style="fill:#727272; stroke:none;" d="M278 28L279 29L278 28z"/>
<path style="fill:#a2a6b6; stroke:none;" d="M8 29L9 30L8 29M31 29L32 30L31 29z"/>
<path style="fill:#727272; stroke:none;" d="M143 29L144 30L143 29z"/>
<path style="fill:#a2a6b6; stroke:none;" d="M165 29L166 30L165 29M209 29L210 30L209 29z"/>
<path style="fill:#727272; stroke:none;" d="M227 29L228 30L227 29M241 29L242 30L241 29z"/>
<path style="fill:#a2a6b6; stroke:none;" d="M261 29L262 30L261 29M264 29L264 32L265 32L264 29z"/>
<path style="fill:#727272; stroke:none;" d="M33 30L34 31L33 30z"/>
<path style="fill:#a2a6b6; stroke:none;" d="M108 30L109 31L108 30z"/>
<path style="fill:#727272; stroke:none;" d="M126 30L127 31L126 30z"/>
<path style="fill:#a2a6b6; stroke:none;" d="M141 30L142 31L141 30M167 30L168 31L167 30M208 30L209 31L208 30z"/>
<path style="fill:#727272; stroke:none;" d="M226 30L227 31L226 30z"/>
<path style="fill:#a2a6b6; stroke:none;" d="M239 30L240 31L239 30z"/>
<path style="fill:#727272; stroke:none;" d="M262 30L263 31L262 30z"/>
<path style="fill:#a2a6b6; stroke:none;" d="M9 31L10 32L9 31z"/>
<path style="fill:#727272; stroke:none;" d="M35 31L36 32L35 31z"/>
<path style="fill:#a2a6b6; stroke:none;" d="M106 31L107 32L106 31z"/>
<path style="fill:#727272; stroke:none;" d="M107 31L108 32L107 31z"/>
<path style="fill:#a2a6b6; stroke:none;" d="M126 31L127 32L126 31z"/>
<path style="fill:#727272; stroke:none;" d="M140 31L141 32L140 31M168 31L169 32L168 31z"/>
<path style="fill:#a2a6b6; stroke:none;" d="M207 31L208 32L207 31z"/>
<path style="fill:#727272; stroke:none;" d="M225 31L226 32L225 31z"/>
<path style="fill:#a2a6b6; stroke:none;" d="M238 31L239 32L238 31M10 32L11 33L10 32z"/>
<path style="fill:#727272; stroke:none;" d="M37 32L38 33L37 32M103.667 32.3333L104.333 32.6667L103.667 32.3333M139 32L140 33L139 32M169 32L170 33L169 32z"/>
<path style="fill:#a2a6b6; stroke:none;" d="M206 32L207 33L206 32z"/>
<path style="fill:#727272; stroke:none;" d="M224 32L225 33L224 32z"/>
<path style="fill:#a2a6b6; stroke:none;" d="M237 32L238 33L237 32z"/>
<path style="fill:#727272; stroke:none;" d="M11 33L12 34L11 33M39 33L40 34L39 33M125 33L126 34L125 33M170 33L171 34L170 33z"/>
<path style="fill:#a2a6b6; stroke:none;" d="M205 33L206 34L205 33z"/>
<path style="fill:#727272; stroke:none;" d="M223 33L224 34L223 33z"/>
<path style="fill:#a2a6b6; stroke:none;" d="M236 33L237 34L236 33z"/>
<path style="fill:#727272; stroke:none;" d="M12 34L13 35L12 34z"/>
<path style="fill:#a2a6b6; stroke:none;" d="M41 34L42 35L41 34z"/>
<path style="fill:#727272; stroke:none;" d="M171 34L172 35L171 34z"/>
<path style="fill:#a2a6b6; stroke:none;" d="M204 34L205 35L204 34z"/>
<path style="fill:#727272; stroke:none;" d="M222 34L223 35L222 34z"/>
<path style="fill:#a2a6b6; stroke:none;" d="M235 34L236 35L235 34M13 35L14 36L13 35M42 35L43 36L42 35M124 35L125 36L124 35z"/>
<path style="fill:#727272; stroke:none;" d="M136 35L137 36L136 35z"/>
<path style="fill:#a2a6b6; stroke:none;" d="M172 35L173 36L172 35M203 35L204 36L203 35z"/>
<path style="fill:#727272; stroke:none;" d="M221 35L222 36L221 35z"/>
<path style="fill:#a2a6b6; stroke:none;" d="M14 36L15 37L14 36z"/>
<path style="fill:#727272; stroke:none;" d="M43 36L44 37L43 36M123 36L124 37L123 36M135 36L136 37L135 36z"/>
<path style="fill:#a2a6b6; stroke:none;" d="M151.667 36.3333L152.333 36.6667L151.667 36.3333z"/>
<path style="fill:#fefefe; stroke:none;" d="M147 42L162 42C158.227 35.2143 150.602 34.7944 147 42z"/>
<path style="fill:#a2a6b6; stroke:none;" d="M156 36L157 37L156 36z"/>
<path style="fill:#727272; stroke:none;" d="M157 36L158 37L157 36z"/>
<path style="fill:#a2a6b6; stroke:none;" d="M202 36L203 37L202 36z"/>
<path style="fill:#727272; stroke:none;" d="M220 36L221 37L220 36M234 36L235 37L234 36M16 37L17 38L16 37M44 37L45 38L44 37z"/>
<path style="fill:#a2a6b6; stroke:none;" d="M134 37L135 38L134 37M149 37L150 38L149 37z"/>
<path style="fill:#727272; stroke:none;" d="M159 37L160 38L159 37M173 37L174 38L173 37z"/>
<path style="fill:#a2a6b6; stroke:none;" d="M201 37L202 38L201 37M233 37L234 38L233 37z"/>
<path style="fill:#727272; stroke:none;" d="M18 38L19 39L18 38M45 38L46 39L45 38z"/>
<path style="fill:#a2a6b6; stroke:none;" d="M148 38L149 39L148 38z"/>
<path style="fill:#727272; stroke:none;" d="M160 38L161 39L160 38z"/>
<path style="fill:#a2a6b6; stroke:none;" d="M200 38L201 39L200 38z"/>
<path style="fill:#727272; stroke:none;" d="M233 38L234 39L233 38z"/>
<path style="fill:#a2a6b6; stroke:none;" d="M19 39L20 40L19 39z"/>
<path style="fill:#727272; stroke:none;" d="M20 39L21 40L20 39M46 39L47 40L46 39M120 39L121 40L120 39z"/>
<path style="fill:#a2a6b6; stroke:none;" d="M133 39L134 40L133 39z"/>
<path style="fill:#727272; stroke:none;" d="M147 39L148 40L147 39z"/>
<path style="fill:#a2a6b6; stroke:none;" d="M174 39L175 40L174 39M199 39L200 40L199 39M252 39L253 40L252 39z"/>
<path style="fill:#fefefe; stroke:none;" d="M253.015 39.6682C241.893 42.9255 246.573 60.4379 257.995 57.4128C269.541 54.3549 264.359 36.3461 253.015 39.6682z"/>
<path style="fill:#a2a6b6; stroke:none;" d="M258 39L259 40L258 39z"/>
<path style="fill:#727272; stroke:none;" d="M259 39L260 40L259 39z"/>
<path style="fill:#a2a6b6; stroke:none;" d="M21 40L22 41L21 40z"/>
<path style="fill:#727272; stroke:none;" d="M22 40L23 41L22 40M47 40L48 41L47 40z"/>
<path style="fill:#a2a6b6; stroke:none;" d="M119 40L120 41L119 40M161 40L162 41L161 40z"/>
<path style="fill:#727272; stroke:none;" d="M174 40L175 41L174 40z"/>
<path style="fill:#a2a6b6; stroke:none;" d="M198 40L199 41L198 40z"/>
<path style="fill:#727272; stroke:none;" d="M232 40L233 41L232 40z"/>
<path style="fill:#a2a6b6; stroke:none;" d="M250 40L251 41L250 40M260 40L261 41L260 40z"/>
<path style="fill:#727272; stroke:none;" d="M24 41L25 42L24 41M117 41L118 42L117 41z"/>
<path style="fill:#a2a6b6; stroke:none;" d="M132 41L133 42L132 41M197 41L198 42L197 41z"/>
<path style="fill:#727272; stroke:none;" d="M262 41L263 42L262 41M26 42L27 43L26 42M48 42L49 43L48 42M115 42L116 43L115 42z"/>
<path style="fill:#a2a6b6; stroke:none;" d="M116 42L117 43L116 42z"/>
<path style="fill:#727272; stroke:none;" d="M132.333 42.6667L132.667 43.3333L132.333 42.6667M146 42L147 43L146 42z"/>
<path style="fill:#a2a6b6; stroke:none;" d="M147 42L147 43L162 43L147 42M175 42L176 43L175 42z"/>
<path style="fill:#727272; stroke:none;" d="M28 43L29 44L28 43z"/>
<path style="fill:#a2a6b6; stroke:none;" d="M49 43L50 44L49 43z"/>
<path style="fill:#727272; stroke:none;" d="M112 43L113 44L112 43z"/>
<path style="fill:#a2a6b6; stroke:none;" d="M113 43L114 44L113 43z"/>
<path style="fill:#727272; stroke:none;" d="M175 43L175 46L176 46L175 43z"/>
<path style="fill:#a2a6b6; stroke:none;" d="M231 43L232 44L231 43M247 43L248 44L247 43M263 43L264 44L263 43M29 44L30 45L29 44z"/>
<path style="fill:#727272; stroke:none;" d="M49 44L50 45L49 44M96 44L96 45L108 45L96 44z"/>
<path style="fill:#a2a6b6; stroke:none;" d="M108.667 44.3333L109.333 44.6667L108.667 44.3333z"/>
<path style="fill:#727272; stroke:none;" d="M231.333 44.6667L231.667 45.3333L231.333 44.6667M264 44L265 45L264 44M31 45L32 46L31 45z"/>
<path style="fill:#a2a6b6; stroke:none;" d="M96 45L96 69L97 69L96 45z"/>
<path style="fill:#727272; stroke:none;" d="M246 45L247 46L246 45z"/>
<path style="fill:#a2a6b6; stroke:none;" d="M264 45L265 46L264 45M32 46L33 47L32 46M131 46L131 52L132 52L131 46M246 46L247 47L246 46z"/>
<path style="fill:#727272; stroke:none;" d="M33 47L34 48L33 47z"/>
<path style="fill:#a2a6b6; stroke:none;" d="M50 47L50 51L51 51L50 47M33 48L34 49L33 48z"/>
<path style="fill:#727272; stroke:none;" d="M210 48L211 49L210 48M8 49L9 50L8 49M211 49L212 50L211 49M7 50L8 51L7 50z"/>
<path style="fill:#a2a6b6; stroke:none;" d="M10 50L11 51L10 50z"/>
<path style="fill:#727272; stroke:none;" d="M146 50L147 51L146 50z"/>
<path style="fill:#a2a6b6; stroke:none;" d="M147 50L147 51L176 51L147 50z"/>
<path style="fill:#727272; stroke:none;" d="M212 50L213 51L212 50z"/>
<path style="fill:#a2a6b6; stroke:none;" d="M246.333 50.6667L246.667 51.3333L246.333 50.6667M6 51L7 52L6 51z"/>
<path style="fill:#727272; stroke:none;" d="M11 51L12 52L11 51z"/>
<path style="fill:#a2a6b6; stroke:none;" d="M33 51L34 52L33 51M146.333 51.6667L146.667 52.3333L146.333 51.6667z"/>
<path style="fill:#727272; stroke:none;" d="M213 51L214 52L213 51M231.333 51.6667L231.667 52.3333L231.333 51.6667z"/>
<path style="fill:#a2a6b6; stroke:none;" d="M264 51L265 52L264 51z"/>
<path style="fill:#727272; stroke:none;" d="M6 52L7 53L6 52z"/>
<path style="fill:#a2a6b6; stroke:none;" d="M13 52L14 53L13 52z"/>
<path style="fill:#727272; stroke:none;" d="M33 52L34 53L33 52M214 52L215 53L214 52M246 52L247 53L246 52M264 52L265 53L264 52z"/>
<path style="fill:#a2a6b6; stroke:none;" d="M5 53L6 54L5 53M15 53L16 54L15 53M32 53L33 54L32 53z"/>
<path style="fill:#727272; stroke:none;" d="M146 53L147 54L146 53M196 53L196 69L197 69L196 53z"/>
<path style="fill:#a2a6b6; stroke:none;" d="M197 53L198 54L197 53z"/>
<path style="fill:#727272; stroke:none;" d="M215 53L216 54L215 53z"/>
<path style="fill:#a2a6b6; stroke:none;" d="M231.333 53.6667L231.667 54.3333L231.333 53.6667M247 53L248 54L247 53M17 54L18 55L17 54M31 54L32 55L31 54z"/>
<path style="fill:#727272; stroke:none;" d="M49 54L50 55L49 54M132 54L133 55L132 54z"/>
<path style="fill:#a2a6b6; stroke:none;" d="M165 54L166 55L165 54M198 54L199 55L198 54z"/>
<path style="fill:#727272; stroke:none;" d="M216 54L217 55L216 54M263 54L264 55L263 54M4 55L5 56L4 55M19 55L20 56L19 55z"/>
<path style="fill:#a2a6b6; stroke:none;" d="M20 55L21 56L20 55M29 55L30 56L29 55z"/>
<path style="fill:#727272; stroke:none;" d="M30 55L31 56L30 55z"/>
<path style="fill:#a2a6b6; stroke:none;" d="M49.3333 55.6667L49.6667 56.3333L49.3333 55.6667M132 55L133 56L132 55z"/>
<path style="fill:#727272; stroke:none;" d="M147 55L148 56L147 55z"/>
<path style="fill:#a2a6b6; stroke:none;" d="M167 55L168 56L167 55M199 55L200 56L199 55z"/>
<path style="fill:#727272; stroke:none;" d="M217 55L218 56L217 55M248 55L249 56L248 55M262 55L263 56L262 55M23 56L23 57L27 57L23 56M148 56L149 57L148 56z"/>
<path style="fill:#a2a6b6; stroke:none;" d="M162 56L163 57L162 56M169 56L170 57L169 56z"/>
<path style="fill:#727272; stroke:none;" d="M200 56L201 57L200 56M218 56L219 57L218 56M232 56L233 57L232 56M249 56L250 57L249 56M261 56L262 57L261 56M3 57L4 58L3 57z"/>
<path style="fill:#a2a6b6; stroke:none;" d="M133 57L134 58L133 57z"/>
<path style="fill:#727272; stroke:none;" d="M149 57L150 58L149 57z"/>
<path style="fill:#a2a6b6; stroke:none;" d="M150 57L151 58L150 57z"/>
<path style="fill:#727272; stroke:none;" d="M161 57L162 58L161 57z"/>
<path style="fill:#a2a6b6; stroke:none;" d="M171 57L172 58L171 57z"/>
<path style="fill:#727272; stroke:none;" d="M201 57L202 58L201 57M219 57L220 58L219 57z"/>
<path style="fill:#a2a6b6; stroke:none;" d="M232 57L233 58L232 57z"/>
<path style="fill:#727272; stroke:none;" d="M251 57L252 58L251 57z"/>
<path style="fill:#a2a6b6; stroke:none;" d="M252 57L253 58L252 57M258 57L259 58L258 57z"/>
<path style="fill:#727272; stroke:none;" d="M259 57L260 58L259 57z"/>
<path style="fill:#a2a6b6; stroke:none;" d="M2 58L3 59L2 58M48 58L49 59L48 58z"/>
<path style="fill:#727272; stroke:none;" d="M151 58L152 59L151 58z"/>
<path style="fill:#a2a6b6; stroke:none;" d="M152 58L153 59L152 58M158 58L159 59L158 58z"/>
<path style="fill:#727272; stroke:none;" d="M159 58L160 59L159 58z"/>
<path style="fill:#a2a6b6; stroke:none;" d="M173 58L174 59L173 58z"/>
<path style="fill:#727272; stroke:none;" d="M202 58L203 59L202 58M220 58L221 59L220 58z"/>
<path style="fill:#a2a6b6; stroke:none;" d="M134 59L135 60L134 59z"/>
<path style="fill:#727272; stroke:none;" d="M203 59L204 60L203 59M221 59L222 60L221 59z"/>
<path style="fill:#a2a6b6; stroke:none;" d="M233 59L234 60L233 59z"/>
<path style="fill:#727272; stroke:none;" d="M1 60L2 61L1 60z"/>
<path style="fill:#a2a6b6; stroke:none;" d="M47 60L48 61L47 60z"/>
<path style="fill:#727272; stroke:none;" d="M135 60L136 61L135 60M174 60L175 61L174 60M204 60L205 61L204 60M222 60L223 61L222 60M234 60L235 61L234 60M46 61L47 62L46 61M205 61L206 62L205 61M223 61L224 62L223 61M206 62L207 63L206 62M224 62L225 63L224 62z"/>
<path style="fill:#a2a6b6; stroke:none;" d="M235 62L236 63L235 62z"/>
<path style="fill:#727272; stroke:none;" d="M3 63L4 64L3 63z"/>
<path style="fill:#a2a6b6; stroke:none;" d="M137 63L138 64L137 63M172 63L173 64L172 63z"/>
<path style="fill:#727272; stroke:none;" d="M207 63L208 64L207 63M225 63L226 64L225 63M236 63L237 64L236 63M5 64L6 65L5 64z"/>
<path style="fill:#a2a6b6; stroke:none;" d="M171 64L172 65L171 64z"/>
<path style="fill:#727272; stroke:none;" d="M208 64L209 65L208 64M226 64L227 65L226 64M237 64L238 65L237 64M264 64L265 65L264 64z"/>
<path style="fill:#a2a6b6; stroke:none;" d="M6 65L7 66L6 65z"/>
<path style="fill:#727272; stroke:none;" d="M7 65L8 66L7 65M42 65L43 66L42 65M140 65L141 66L140 65M169 65L170 66L169 65M209 65L210 66L209 65M227 65L228 66L227 65M238 65L239 66L238 65M263 65L264 66L263 65z"/>
<path style="fill:#a2a6b6; stroke:none;" d="M8 66L9 67L8 66z"/>
<path style="fill:#727272; stroke:none;" d="M9 66L10 67L9 66M40 66L41 67L40 66z"/>
<path style="fill:#a2a6b6; stroke:none;" d="M41 66L42 67L41 66z"/>
<path style="fill:#727272; stroke:none;" d="M141 66L142 67L141 66z"/>
<path style="fill:#a2a6b6; stroke:none;" d="M168 66L169 67L168 66z"/>
<path style="fill:#727272; stroke:none;" d="M210 66L211 67L210 66M228 66L229 67L228 66z"/>
<path style="fill:#a2a6b6; stroke:none;" d="M239 66L240 67L239 66M262 66L263 67L262 66M10 67L11 68L10 67z"/>
<path style="fill:#727272; stroke:none;" d="M11 67L12 68L11 67M38 67L39 68L38 67z"/>
<path style="fill:#a2a6b6; stroke:none;" d="M39 67L40 68L39 67z"/>
<path style="fill:#727272; stroke:none;" d="M143 67L144 68L143 67M166 67L167 68L166 67M211 67L212 68L211 67M229 67L230 68L229 67M241 67L242 68L241 67z"/>
<path style="fill:#a2a6b6; stroke:none;" d="M261 67L262 68L261 67M13 68L14 69L13 68z"/>
<path style="fill:#727272; stroke:none;" d="M14 68L15 69L14 68M36 68L37 69L36 68M145 68L146 69L145 68z"/>
<path style="fill:#a2a6b6; stroke:none;" d="M164 68L165 69L164 68z"/>
<path style="fill:#727272; stroke:none;" d="M212 68L213 69L212 68M230 68L231 69L230 68z"/>
<path style="fill:#a2a6b6; stroke:none;" d="M242 68L243 69L242 68z"/>
<path style="fill:#727272; stroke:none;" d="M243 68L244 69L243 68z"/>
<path style="fill:#a2a6b6; stroke:none;" d="M259 68L260 69L259 68M17 69L18 70L17 69z"/>
<path style="fill:#727272; stroke:none;" d="M18.6667 69.3333L19.3333 69.6667L18.6667 69.3333M31.6667 69.3333L32.3333 69.6667L31.6667 69.3333z"/>
<path style="fill:#a2a6b6; stroke:none;" d="M33 69L34 70L33 69M147 69L148 70L147 69z"/>
<path style="fill:#727272; stroke:none;" d="M148.667 69.3333L149.333 69.6667L148.667 69.3333M159.667 69.3333L160.333 69.6667L159.667 69.3333z"/>
<path style="fill:#a2a6b6; stroke:none;" d="M161 69L162 70L161 69M245 69L246 70L245 69z"/>
<path style="fill:#727272; stroke:none;" d="M246 69L247 70L246 69M255.667 69.3333L256.333 69.6667L255.667 69.3333z"/>
<path style="fill:#a2a6b6; stroke:none;" d="M257 69L258 70L257 69z"/>
</svg>
